<svg width="89" height="39" viewBox="0 0 89 39" fill="none" xmlns="http://www.w3.org/2000/svg">
<path d="M44.18 25.1L43.94 25.18C43.7533 25.2467 43.5333 25.2933 43.28 25.32C43.04 25.3333 42.8867 25.34 42.82 25.34C42.78 25.34 42.6867 25.3333 42.54 25.32C42.4067 25.2933 42.3067 25.28 42.24 25.28C42.2 25.28 42.1467 25.3133 42.08 25.38L41.18 25.06C41.18 24.9933 41.18 24.9333 41.18 24.88C41.1933 24.8267 41.2067 24.7667 41.22 24.7C41.2467 24.5133 41.2667 24.34 41.28 24.18C41.3067 24.0067 41.3067 23.8467 41.28 23.7C41.3867 23.5933 41.4 23.2667 41.32 22.72C41.24 22.16 41.2 21.8067 41.2 21.66C41.2 21.62 41.2133 21.5133 41.24 21.34C41.2667 21.1667 41.2933 21.0133 41.32 20.88C41.3333 20.84 41.36 20.7867 41.4 20.72C41.4533 20.6533 41.48 20.58 41.48 20.5C41.4533 20.1133 41.4667 19.8 41.52 19.56C41.5867 19.3067 41.6067 19.0533 41.58 18.8C41.5667 18.7333 41.5733 18.6667 41.6 18.6C41.6267 18.5333 41.64 18.4467 41.64 18.34V17.68C41.64 17.4933 41.64 17.2867 41.64 17.06C41.64 16.82 41.6467 16.5467 41.66 16.24C41.6733 15.64 41.68 15.24 41.68 15.04C41.6933 14.84 41.7133 14.7 41.74 14.62C41.7533 14.4867 41.7867 14.38 41.84 14.3C41.9067 14.22 41.94 14.0867 41.94 13.9C41.94 13.8867 41.9133 13.8467 41.86 13.78C41.82 13.7133 41.7667 13.6267 41.7 13.52C41.66 13.4667 41.6333 13.4 41.62 13.32C41.6067 13.24 41.6 13.1667 41.6 13.1C41.6133 13.02 41.62 12.9533 41.62 12.9C41.6333 12.8467 41.64 12.6933 41.64 12.44C42 12.3333 42.3667 12.28 42.74 12.28C43.1133 12.28 43.4133 12.2667 43.64 12.24C43.72 12.2267 43.78 12.2133 43.82 12.2C43.8733 12.1867 43.92 12.18 43.96 12.18C44 12.1667 44.0467 12.16 44.1 12.16C44.1667 12.1467 44.26 12.14 44.38 12.14C44.4333 12.2733 44.5067 12.42 44.6 12.58C44.6933 12.74 44.7667 12.8867 44.82 13.02C44.9933 13.26 45.16 13.3733 45.32 13.36C45.48 13.3467 45.6267 13.2867 45.76 13.18C45.9067 13.0733 46.0267 12.96 46.12 12.84C46.2133 12.7067 46.2733 12.64 46.3 12.64L48.56 12.66L50.28 13.84C50.3467 13.9067 50.4333 13.9867 50.54 14.08C50.6467 14.16 50.76 14.2733 50.88 14.42C51.1467 14.7 51.3467 14.8333 51.48 14.82L51.96 15.52C51.9333 15.56 51.8733 15.68 51.78 15.88C51.7 16.0667 51.58 16.3333 51.42 16.68C51.1133 17.4 50.96 17.96 50.96 18.36L50.56 18.6C50.2933 18.7067 50.16 18.98 50.16 19.42C49.9333 19.3933 49.56 19.48 49.04 19.68C48.8933 19.7467 48.7333 19.7933 48.56 19.82C48.3867 19.8333 48.2267 19.8467 48.08 19.86C47.9867 19.8733 47.8933 19.88 47.8 19.88C47.72 19.88 47.6333 19.88 47.54 19.88L47.32 20.38C47.16 20.26 46.98 20.18 46.78 20.14C46.58 20.1 46.38 20.0867 46.18 20.1C45.9933 20.1133 45.8133 20.14 45.64 20.18C45.4667 20.22 45.32 20.2667 45.2 20.32C44.76 20.48 44.5333 20.56 44.52 20.56H44.4C44.4133 20.5733 44.42 20.5933 44.42 20.62C44.3933 20.7533 44.3467 20.9133 44.28 21.1C44.2267 21.2733 44.2 21.3933 44.2 21.46C44.2 21.54 44.2067 21.6533 44.22 21.8C44.2333 21.9333 44.2467 22.1133 44.26 22.34C44.2733 22.5533 44.28 22.7333 44.28 22.88C44.2933 23.0267 44.3 23.14 44.3 23.22L44.38 23.76C44.4067 23.8667 44.4267 23.9733 44.44 24.08C44.4533 24.1733 44.4733 24.2733 44.5 24.38L44.18 25.1ZM44.92 14.38C44.92 14.4867 44.92 14.6133 44.92 14.76C44.9333 14.9067 44.9467 15.0733 44.96 15.26C45.0267 16.0867 45.0467 16.58 45.02 16.74C44.7533 16.9 44.5933 17.14 44.54 17.46C44.5 17.6333 44.46 17.8 44.42 17.96C44.38 18.1067 44.3333 18.2333 44.28 18.34L44.24 18.38C44.24 18.5267 44.24 18.6333 44.24 18.7C44.2533 18.7667 44.26 18.8467 44.26 18.94L44.64 19.2L45.02 19.1C45.02 19.3933 45.38 19.3867 46.1 19.08C46.8067 18.7867 47.2067 18.64 47.3 18.64H48.14C48.2467 18.4933 48.3733 18.34 48.52 18.18C48.6667 18.0067 48.74 17.9 48.74 17.86L49 16.4L48.88 15.9L46.22 14H45.34L44.92 14.38ZM50.72 25.14C50.6933 25.02 50.6133 24.94 50.48 24.9C50.4267 24.8467 50.4067 24.7733 50.42 24.68C50.4333 24.5867 50.42 24.5267 50.38 24.5C50.3667 24.4733 50.3533 24.46 50.34 24.46C50.3267 24.46 50.3067 24.4533 50.28 24.44C50.2667 24.4133 50.2267 24.3667 50.16 24.3C50.12 24.2467 50.0733 24.1933 50.02 24.14C49.9667 24.0733 49.9067 23.9867 49.84 23.88C49.6933 23.6933 49.58 23.5467 49.5 23.44C49.42 23.32 49.36 23.2467 49.32 23.22C49.2667 23.1933 49.1867 23.14 49.08 23.06C48.9733 22.98 48.9 22.9333 48.86 22.92C48.82 22.88 48.7867 22.8333 48.76 22.78C48.7333 22.7267 48.7067 22.6867 48.68 22.66C48.6533 22.6333 48.62 22.54 48.58 22.38C48.54 22.22 48.5 22.08 48.46 21.96C48.3133 21.8267 48.0933 21.5867 47.8 21.24C47.7067 21.1467 47.6533 21.0867 47.64 21.06L47.9 20.68L48.86 21.16C48.8733 21.1733 48.94 21.1733 49.06 21.16C49.1933 21.1467 49.3333 21.14 49.48 21.14C49.6267 21.1267 49.7667 21.1267 49.9 21.14C50.0467 21.1533 50.14 21.1933 50.18 21.26C50.2333 21.3267 50.3 21.3733 50.38 21.4C50.46 21.4267 50.54 21.4533 50.62 21.48C50.7133 21.4933 50.7867 21.5067 50.84 21.52C50.9067 21.5333 50.9467 21.56 50.96 21.6L51.36 22.34C51.4133 22.4067 51.5067 22.52 51.64 22.68C51.7867 22.8267 51.98 23.0333 52.22 23.3C52.7 23.86 52.9467 24.1467 52.96 24.16L52.9 24.86L51.3 25.32L50.72 25.14Z" fill="#E85353"/>
<path d="M54.6422 24.608L56.0102 24.404L57.3182 24.02L57.6302 23.516L57.4982 23L57.1862 22.616C57.0982 22.56 57.0062 22.508 56.9102 22.46C56.8222 22.404 56.7302 22.364 56.6342 22.34C56.5462 22.308 56.4542 22.296 56.3582 22.304C56.2702 22.304 56.1822 22.332 56.0942 22.388L55.7942 22.604L54.7982 22.136L54.4382 21.212L54.7502 19.664L55.3022 18.932C55.3262 18.988 55.3742 19.008 55.4462 18.992C55.5182 18.976 55.5902 18.944 55.6622 18.896C55.7342 18.848 55.7942 18.792 55.8422 18.728C55.8902 18.656 55.9022 18.592 55.8782 18.536C56.0142 18.496 56.1702 18.456 56.3462 18.416C56.5222 18.368 56.6742 18.3 56.8022 18.212L58.3502 17.888L58.6022 17.864L58.8182 18.116L58.6262 18.632L58.1822 18.752L57.6062 18.812L56.7302 19.256L56.3222 19.784C56.1942 19.904 56.1302 20.036 56.1302 20.18C56.1382 20.316 56.1742 20.464 56.2382 20.624C56.3262 20.808 56.3902 20.928 56.4302 20.984C56.4782 21.032 56.5382 21.076 56.6102 21.116L57.3182 21.356C57.3982 21.42 57.4702 21.472 57.5342 21.512C57.6062 21.544 57.6862 21.564 57.7742 21.572C57.8622 21.58 57.9862 21.588 58.1462 21.596C58.3142 21.604 58.5262 21.616 58.7822 21.632C58.8542 21.768 58.9382 21.888 59.0342 21.992C59.1302 22.088 59.2222 22.216 59.3102 22.376L59.5502 22.916L59.1902 24.116L58.9022 24.428L58.3142 25.28H58.0142C57.9102 25.28 57.7822 25.284 57.6302 25.292C57.4862 25.292 57.3142 25.292 57.1142 25.292C56.9142 25.292 56.7382 25.312 56.5862 25.352C56.4342 25.392 56.2982 25.436 56.1782 25.484C56.0582 25.524 55.9542 25.56 55.8662 25.592C55.7782 25.624 55.6982 25.636 55.6262 25.628L55.1942 25.496L54.4742 25.616L54.2222 25.1L54.2942 24.8L54.6422 24.608ZM60.5821 21.356C60.5501 21.268 60.5261 21.152 60.5101 21.008C60.4941 20.856 60.4781 20.728 60.4621 20.624L60.6901 20.192C60.8341 20.168 60.9341 20.16 60.9901 20.168C61.0541 20.176 61.1021 20.188 61.1341 20.204C61.1821 20.196 61.2501 20.188 61.3381 20.18C61.4341 20.164 61.5781 20.14 61.7701 20.108C61.7861 19.972 61.8141 19.82 61.8541 19.652C61.8941 19.484 61.9221 19.296 61.9381 19.088L61.7701 18.92L61.7581 18.74L61.8901 18.428H63.3301L63.8701 18.452C63.9261 18.516 63.9501 18.592 63.9421 18.68C63.9341 18.76 63.9181 18.836 63.8941 18.908C63.8701 18.98 63.8461 19.04 63.8221 19.088C63.8061 19.128 63.8101 19.14 63.8341 19.124V19.868C63.7861 19.908 63.7501 19.956 63.7261 20.012C63.7021 20.06 63.6821 20.116 63.6661 20.18L63.6901 20.204L64.3861 20.18C64.4101 20.188 64.4341 20.196 64.4581 20.204C64.4821 20.212 64.5101 20.22 64.5421 20.228C64.6381 20.252 64.7621 20.264 64.9141 20.264L65.0221 20.384L64.8901 20.96C64.8421 20.96 64.7781 20.968 64.6981 20.984C64.6181 20.992 64.5341 21.004 64.4461 21.02C64.3661 21.028 64.2901 21.036 64.2181 21.044C64.1541 21.052 64.1101 21.056 64.0861 21.056L63.5821 21.2C63.5501 21.288 63.5261 21.364 63.5101 21.428C63.5021 21.484 63.4981 21.54 63.4981 21.596C63.4981 21.644 63.4981 21.7 63.4981 21.764C63.5061 21.82 63.5101 21.892 63.5101 21.98L63.4261 23.504C63.4021 23.64 63.3941 23.764 63.4021 23.876C63.4181 23.988 63.4381 24.084 63.4621 24.164C63.4781 24.204 63.4941 24.244 63.5101 24.284C63.5261 24.324 63.5421 24.364 63.5581 24.404L63.6661 24.716L63.7141 24.776L64.8781 24.416L65.3221 24.308L65.5861 24.548L65.2981 24.932L65.0221 25.076L64.7821 25.124L63.4021 25.736C63.3621 25.736 63.3301 25.732 63.3061 25.724C63.2661 25.724 63.2181 25.724 63.1621 25.724C63.1141 25.716 63.0581 25.708 62.9941 25.7C62.7061 25.676 62.4901 25.684 62.3461 25.724C62.3461 25.5 62.2581 25.348 62.0821 25.268C61.9941 25.212 61.9141 25.164 61.8421 25.124C61.7781 25.084 61.7181 25.052 61.6621 25.028C61.6621 24.892 61.6621 24.8 61.6621 24.752C61.6701 24.704 61.6621 24.64 61.6381 24.56C61.6221 24.52 61.6181 24.432 61.6261 24.296C61.6341 24.152 61.6421 23.972 61.6501 23.756C61.6661 23.532 61.6581 23.352 61.6261 23.216C61.5941 23.072 61.5461 23 61.4821 23C61.4901 22.896 61.4941 22.792 61.4941 22.688C61.5021 22.584 61.5101 22.492 61.5181 22.412C61.5261 22.372 61.5301 22.328 61.5301 22.28C61.5301 22.232 61.5301 22.188 61.5301 22.148C61.5461 22.116 61.5581 22.092 61.5661 22.076C61.5741 22.052 61.5821 22.036 61.5901 22.028C61.5981 22.012 61.6341 21.992 61.6981 21.968C61.7701 21.936 61.8341 21.852 61.8901 21.716C62.0741 21.588 62.1541 21.472 62.1301 21.368C62.1061 21.264 61.9661 21.192 61.7101 21.152C61.6541 21.16 61.6061 21.176 61.5661 21.2C61.5341 21.216 61.5181 21.26 61.5181 21.332L60.7981 21.488L60.5821 21.356ZM77.9552 20.36V20.912H77.6432L77.1872 21.272C76.7952 21.328 76.4752 21.408 76.2272 21.512C75.9792 21.608 75.8632 21.744 75.8792 21.92C75.8632 21.96 75.8552 22.008 75.8552 22.064C75.8552 22.112 75.8832 22.136 75.9392 22.136L75.6992 23.336L75.5912 23.468V24.8L75.5192 25.472L75.2792 25.712L73.9112 25.616L73.6112 25.208L73.6952 24.992L73.6472 24.332L73.7912 23.12L73.9112 22.232C73.9112 22.208 73.9152 22.188 73.9232 22.172C73.9232 22.156 73.9232 22.136 73.9232 22.112C73.9312 22.088 73.9352 22.068 73.9352 22.052C73.9752 22.02 73.9992 21.948 74.0072 21.836C74.0232 21.724 74.0272 21.652 74.0192 21.62C74.0192 21.564 74.0152 21.512 74.0072 21.464C74.0072 21.416 73.9912 21.312 73.9592 21.152C73.9512 21.104 73.9232 21.048 73.8752 20.984C73.8352 20.912 73.7912 20.848 73.7432 20.792L73.8992 20.42H74.1272L75.3632 20.192L75.6632 20.336C75.6392 20.472 75.6352 20.588 75.6512 20.684C75.6752 20.772 75.7072 20.84 75.7472 20.888C75.7952 20.936 75.8472 20.968 75.9032 20.984C75.9592 20.992 76.0072 20.984 76.0472 20.96L76.2632 20.84C76.3032 20.824 76.3152 20.78 76.2992 20.708C76.2912 20.636 76.2952 20.544 76.3112 20.432L77.7992 20.168L77.9552 20.36ZM83.6593 22.88C83.4833 22.856 83.3273 22.888 83.1913 22.976C83.1433 23 83.0953 23.024 83.0473 23.048C82.9993 23.064 82.9513 23.08 82.9033 23.096C82.8793 23.104 82.8553 23.112 82.8313 23.12C82.8073 23.128 82.7873 23.136 82.7713 23.144L81.1033 23.648C80.6393 23.544 80.4753 23.62 80.6113 23.876C80.6353 23.932 80.6673 24.016 80.7073 24.128C80.7473 24.24 80.7793 24.32 80.8033 24.368C80.9073 24.408 81.0153 24.472 81.1273 24.56C81.2393 24.64 81.3433 24.688 81.4393 24.704L81.6553 24.68C81.7113 24.68 81.7873 24.676 81.8833 24.668C81.9873 24.66 82.0873 24.648 82.1833 24.632C82.2873 24.608 82.3793 24.58 82.4593 24.548C82.5473 24.516 82.6073 24.476 82.6393 24.428C82.6633 24.388 82.6993 24.36 82.7473 24.344C82.7953 24.32 82.8433 24.3 82.8913 24.284C82.9233 24.276 82.9513 24.272 82.9753 24.272C83.0073 24.264 83.0433 24.256 83.0833 24.248L83.2153 24.716L83.0713 24.992C83.0633 25.008 83.0353 25.028 82.9873 25.052C82.9473 25.068 82.8993 25.092 82.8433 25.124C82.7873 25.156 82.7313 25.188 82.6753 25.22C82.6273 25.244 82.5913 25.268 82.5673 25.292C82.5513 25.308 82.5073 25.316 82.4353 25.316C82.3713 25.316 82.2953 25.316 82.2073 25.316C82.1273 25.316 82.0433 25.32 81.9553 25.328C81.8673 25.336 81.7993 25.352 81.7513 25.376C81.6393 25.432 81.5513 25.468 81.4873 25.484C81.4313 25.5 81.3833 25.512 81.3433 25.52C81.3033 25.536 81.2753 25.532 81.2593 25.508C81.2433 25.5 81.2153 25.496 81.1753 25.496C81.1513 25.496 81.1193 25.496 81.0793 25.496C81.0393 25.496 80.9993 25.492 80.9593 25.484C80.8553 25.476 80.7713 25.472 80.7073 25.472C80.6433 25.464 80.6033 25.46 80.5873 25.46L79.4353 24.896C79.4113 24.656 79.2993 24.536 79.0993 24.536C79.0593 24.536 79.0113 24.504 78.9553 24.44C78.8993 24.368 78.8513 24.292 78.8113 24.212C78.7793 24.172 78.7513 24.128 78.7273 24.08C78.7033 24.024 78.6793 23.964 78.6553 23.9L78.5473 22.532L78.6553 21.728C78.6633 21.696 78.6873 21.656 78.7273 21.608C78.7753 21.528 78.8353 21.408 78.9073 21.248C78.9393 21.176 79.0033 21.108 79.0993 21.044C79.1953 20.98 79.2953 20.924 79.3993 20.876C79.5113 20.82 79.6153 20.772 79.7113 20.732C79.8153 20.684 79.8913 20.644 79.9393 20.612C80.0353 20.628 80.1753 20.524 80.3593 20.3C80.4073 20.244 80.4673 20.2 80.5393 20.168C80.6113 20.128 80.6833 20.096 80.7553 20.072C80.7953 20.056 80.8393 20.044 80.8873 20.036C80.9353 20.028 80.9793 20.02 81.0193 20.012L82.4233 20.192C82.5033 20.208 82.5873 20.232 82.6753 20.264C82.7393 20.296 82.8033 20.336 82.8673 20.384C82.9313 20.432 82.9833 20.488 83.0233 20.552C83.0793 20.688 83.1593 20.8 83.2633 20.888C83.3673 20.968 83.4513 21.024 83.5153 21.056L83.9593 21.848L83.8633 22.628L83.6593 22.88ZM81.8833 22.472L81.9793 22.4C82.0033 22.384 82.0273 22.368 82.0513 22.352C82.0753 22.328 82.0953 22.312 82.1113 22.304C82.1673 22.288 82.2313 22.256 82.3033 22.208C82.3753 22.16 82.4033 22.1 82.3873 22.028C82.3873 21.892 82.3153 21.74 82.1713 21.572C82.0273 21.404 81.8393 21.284 81.6073 21.212C81.4953 21.172 81.3873 21.152 81.2833 21.152C81.1793 21.152 81.0793 21.16 80.9833 21.176C80.8953 21.184 80.8113 21.196 80.7313 21.212C80.6593 21.228 80.5993 21.236 80.5513 21.236C80.3673 21.196 80.2633 21.28 80.2393 21.488C80.1193 21.672 80.0593 21.876 80.0593 22.1C80.0673 22.316 80.0913 22.524 80.1313 22.724C80.1313 22.836 80.1513 22.928 80.1913 23C80.2393 23.072 80.2953 23.116 80.3593 23.132C80.4233 23.148 80.4873 23.136 80.5513 23.096C80.6233 23.048 80.6833 22.964 80.7313 22.844L81.8833 22.472Z" fill="black"/>
<path d="M72.0617 21.5C72.0857 21.636 72.0977 21.756 72.0977 21.86C72.0977 21.956 72.0937 22.052 72.0857 22.148C72.0857 22.236 72.0897 22.324 72.0977 22.412C72.1137 22.492 72.1457 22.58 72.1937 22.676C72.1777 22.708 72.1377 22.772 72.0737 22.868C72.0177 22.956 71.9777 23.048 71.9537 23.144C71.9377 23.232 71.9257 23.3 71.9177 23.348C71.9097 23.396 71.9017 23.428 71.8937 23.444C71.9177 23.46 71.9377 23.492 71.9537 23.54C71.9617 23.58 71.9537 23.632 71.9297 23.696C71.9057 23.752 71.8577 23.832 71.7857 23.936C71.6417 24.128 71.5617 24.292 71.5457 24.428C71.5297 24.556 71.4977 24.656 71.4497 24.728C71.4337 24.744 71.3817 24.768 71.2937 24.8C71.2137 24.832 71.1177 24.872 71.0057 24.92C70.8937 24.96 70.7817 25.008 70.6697 25.064C70.5577 25.12 70.4697 25.176 70.4057 25.232C70.2697 25.256 70.1497 25.288 70.0457 25.328C69.9417 25.368 69.8137 25.396 69.6617 25.412C69.5177 25.444 69.3697 25.484 69.2177 25.532C69.0657 25.572 68.9817 25.592 68.9657 25.592C68.5897 25.592 68.3657 25.604 68.2937 25.628C68.2297 25.652 68.1537 25.664 68.0657 25.664L66.9737 25.268L66.4697 24.536C66.4697 24.344 66.4617 24.184 66.4457 24.056C66.4377 23.92 66.4257 23.804 66.4097 23.708C66.3937 23.604 66.3817 23.508 66.3737 23.42C66.3657 23.332 66.3657 23.232 66.3737 23.12C66.3977 23.096 66.4337 23.04 66.4817 22.952C66.5297 22.856 66.5777 22.748 66.6257 22.628C66.6817 22.508 66.7337 22.384 66.7817 22.256C66.8377 22.128 66.8777 22.02 66.9017 21.932C66.9657 21.748 67.0137 21.588 67.0457 21.452C67.0777 21.308 67.1017 21.18 67.1177 21.068C67.1817 21.028 67.2337 20.984 67.2737 20.936C67.3137 20.888 67.3537 20.848 67.3937 20.816C67.7217 20.624 68.0057 20.468 68.2457 20.348C68.4857 20.22 68.7097 20.14 68.9177 20.108L69.2777 20.084C69.3177 20.092 69.3537 20.1 69.3857 20.108C69.4177 20.116 69.4497 20.124 69.4817 20.132C69.5297 20.148 69.5737 20.16 69.6137 20.168C69.6537 20.168 69.6777 20.168 69.6857 20.168L69.9257 20.54C69.9257 20.612 69.9097 20.672 69.8777 20.72C69.8457 20.76 69.8777 20.788 69.9737 20.804C70.0777 20.828 70.1337 20.844 70.1417 20.852V20.864C70.2697 20.864 70.4017 20.836 70.5377 20.78C70.6737 20.716 70.8097 20.684 70.9457 20.684C70.9777 20.684 71.0337 20.7 71.1137 20.732C71.1937 20.756 71.2777 20.788 71.3657 20.828C71.4537 20.868 71.5337 20.908 71.6057 20.948C71.6857 20.98 71.7417 21.004 71.7737 21.02C71.7577 21.14 71.7617 21.224 71.7857 21.272C71.8097 21.32 71.8417 21.356 71.8817 21.38C71.9217 21.396 71.9577 21.412 71.9897 21.428C72.0297 21.436 72.0537 21.46 72.0617 21.5ZM69.9137 24.5C70.0337 24.42 70.1497 24.164 70.2617 23.732C70.3257 23.5 70.3777 23.328 70.4177 23.216C70.4657 23.096 70.4897 22.984 70.4897 22.88C70.4897 22.704 70.4297 22.496 70.3097 22.256C70.2457 22.128 70.1977 22.02 70.1657 21.932C70.1337 21.844 70.1097 21.756 70.0937 21.668C70.0297 21.636 69.9937 21.588 69.9857 21.524C69.9857 21.452 69.9537 21.38 69.8897 21.308C69.8097 21.244 69.7617 21.22 69.7457 21.236C69.7297 21.252 69.7137 21.26 69.6977 21.26H69.5897C69.5257 21.26 69.4377 21.272 69.3257 21.296C69.2217 21.32 69.1377 21.376 69.0737 21.464C68.9777 21.568 68.8937 21.652 68.8217 21.716C68.7577 21.772 68.7217 21.808 68.7137 21.824C68.6337 21.976 68.5617 22.108 68.4977 22.22C68.4337 22.324 68.3817 22.408 68.3417 22.472L68.2337 22.724C68.1857 22.844 68.1657 23.004 68.1737 23.204C68.1897 23.236 68.2057 23.308 68.2217 23.42C68.2377 23.524 68.1897 23.636 68.0777 23.756C68.0537 23.78 68.0297 23.828 68.0057 23.9C67.9817 23.964 67.9657 24.04 67.9577 24.128C67.9497 24.216 67.9577 24.304 67.9817 24.392C68.0137 24.48 68.0737 24.556 68.1617 24.62C68.2737 24.7 68.3897 24.78 68.5097 24.86C68.6297 24.932 68.7057 24.968 68.7377 24.968H68.8697C68.9177 24.968 68.9617 24.98 69.0017 25.004L69.9137 24.5Z" fill="#E75353"/>
<path d="M23.5 7L51 36H10L23.5 7Z" fill="#E75353"/>
<line x1="6.64645" y1="37.6464" x2="29.6464" y2="14.6464" stroke="white"/>
<line x1="23.3536" y1="20.6464" x2="41.3536" y2="38.6464" stroke="white"/>
</svg>
