<svg xmlns="http://www.w3.org/2000/svg" xmlns:xlink="http://www.w3.org/1999/xlink" version="1.1" id="Icons" viewBox="0 0 32 32" xml:space="preserve">
<style type="text/css">
	.st0{fill:none;stroke:#ff4141;stroke-width:2;stroke-linecap:round;stroke-linejoin:round;stroke-miterlimit:10;}
</style>
<line class="st0" x1="4" y1="24" x2="28" y2="24" fill="#ff4141"/>
<polygon class="st0" points="16,2 10,5 16,8 22,5 " fill="#ff4141"/>
<polyline class="st0" points="10,5 10,12 16,15 22,12 22,5 " fill="#ff4141"/>
<line class="st0" x1="16" y1="8" x2="16" y2="15" fill="#ff4141"/>
<path class="st0" d="M28.5,23.4l-3.9-4.7c-0.4-0.5-0.9-0.7-1.5-0.7H8.9c-0.6,0-1.2,0.3-1.5,0.7l-3.9,4.7C3.2,23.8,3,24.3,3,24.7V27  c0,1.1,0.9,2,2,2h22c1.1,0,2-0.9,2-2v-2.3C29,24.3,28.8,23.8,28.5,23.4z" fill="#ff4141"/>
</svg>