{  "asset": {    "version": "2.0",    "generator": "THREE.GLTFExporter"  },  "scenes": [    {      "name": "AuxScene",      "nodes": [        12      ]    }  ],  "scene": 0,  "nodes": [    {      "mesh": 0    },    {      "mesh": 1    },    {      "mesh": 2    },    {      "mesh": 3    },    {      "mesh": 4    },    {      "mesh": 5    },    {      "mesh": 6    },    {      "mesh": 7    },    {      "mesh": 8    },    {      "mesh": 9    },    {      "mesh": 10    },    {      "mesh": 11    },    {      "children": [        0,        1,        2,        3,        4,        5,        6,        7,        8,        9,        10,        11      ]    }  ],  "bufferViews": [    {      "buffer": 0,      "byteOffset": 0,      "byteLength": 8928,      "target": 34962,      "byteStride": 12    },    {      "buffer": 0,      "byteOffset": 8928,      "byteLength": 8928,      "target": 34962,      "byteStride": 12    },    {      "buffer": 0,      "byteOffset": 17856,      "byteLength": 8928,      "target": 34962,      "byteStride": 12    },    {      "buffer": 0,      "byteOffset": 26784,      "byteLength": 8928,      "target": 34962,      "byteStride": 12    },    {      "buffer": 0,      "byteOffset": 35712,      "byteLength": 6768,      "target": 34962,      "byteStride": 12    },    {      "buffer": 0,      "byteOffset": 42480,      "byteLength": 6768,      "target": 34962,      "byteStride": 12    },    {      "buffer": 0,      "byteOffset": 49248,      "byteLength": 6768,      "target": 34962,      "byteStride": 12    },    {      "buffer": 0,      "byteOffset": 56016,      "byteLength": 6768,      "target": 34962,      "byteStride": 12    },    {      "buffer": 0,      "byteOffset": 62784,      "byteLength": 6768,      "target": 34962,      "byteStride": 12    },    {      "buffer": 0,      "byteOffset": 69552,      "byteLength": 6768,      "target": 34962,      "byteStride": 12    },    {      "buffer": 0,      "byteOffset": 76320,      "byteLength": 3888,      "target": 34962,      "byteStride": 12    },    {      "buffer": 0,      "byteOffset": 80208,      "byteLength": 3888,      "target": 34962,      "byteStride": 12    },    {      "buffer": 0,      "byteOffset": 84096,      "byteLength": 3888,      "target": 34962,      "byteStride": 12    },    {      "buffer": 0,      "byteOffset": 87984,      "byteLength": 3888,      "target": 34962,      "byteStride": 12    },    {      "buffer": 0,      "byteOffset": 91872,      "byteLength": 3888,      "target": 34962,      "byteStride": 12    },    {      "buffer": 0,      "byteOffset": 95760,      "byteLength": 3888,      "target": 34962,      "byteStride": 12    },    {      "buffer": 0,      "byteOffset": 99648,      "byteLength": 1584,      "target": 34962,      "byteStride": 12    },    {      "buffer": 0,      "byteOffset": 101232,      "byteLength": 1584,      "target": 34962,      "byteStride": 12    },    {      "buffer": 0,      "byteOffset": 102816,      "byteLength": 7344,      "target": 34962,      "byteStride": 12    },    {      "buffer": 0,      "byteOffset": 110160,      "byteLength": 7344,      "target": 34962,      "byteStride": 12    },    {      "buffer": 0,      "byteOffset": 117504,      "byteLength": 1584,      "target": 34962,      "byteStride": 12    },    {      "buffer": 0,      "byteOffset": 119088,      "byteLength": 1584,      "target": 34962,      "byteStride": 12    },    {      "buffer": 0,      "byteOffset": 120672,      "byteLength": 2016,      "target": 34962,      "byteStride": 12    },    {      "buffer": 0,      "byteOffset": 122688,      "byteLength": 2016,      "target": 34962,      "byteStride": 12    }  ],  "buffers": [    {      "byteLength": 124704,      "uri": "data:application/octet-stream;base64,"    }  ],  "accessors": [    {      "bufferView": 0,      "componentType": 5126,      "count": 744,      "max": [        57.83035659790039,        23.995378494262695,        -11.309093475341797      ],      "min": [        53.73097610473633,        -22.325241088867188,        -22.513290405273438      ],      "type": "VEC3"    },    {      "bufferView": 1,      "componentType": 5126,      "count": 744,      "max": [        0.8368175029754639,        0.7267982959747314,        0.8006836175918579      ],      "min": [        -0.8368175029754639,        -0.7267982959747314,        -0.8006836175918579      ],      "type": "VEC3"    },    {      "bufferView": 2,      "componentType": 5126,      "count": 744,      "max": [        -53.793800354003906,        24.066890716552734,        -11.309093475341797      ],      "min": [        -57.8931770324707,        -22.253726959228516,        -22.513275146484375      ],      "type": "VEC3"    },    {      "bufferView": 3,      "componentType": 5126,      "count": 744,      "max": [        0.8370311856269836,        0.7267982959747314,        0.8006836175918579      ],      "min": [        -0.8368175029754639,        -0.887325644493103,        -0.9740898013114929      ],      "type": "VEC3"    },    {      "bufferView": 4,      "componentType": 5126,      "count": 564,      "max": [        17.835895538330078,        15.071640014648438,        22.513290405273438      ],      "min": [        -17.554859161376953,        5.159233093261719,        1.0100284814834595      ],      "type": "VEC3"    },    {      "bufferView": 5,      "componentType": 5126,      "count": 564,      "max": [        0.9032868146896362,        0.9987487196922302,        0.9778741002082825      ],      "min": [        -0.9032868146896362,        -0.9987487196922302,        -0.9778741002082825      ],      "type": "VEC3"    },    {      "bufferView": 6,      "componentType": 5126,      "count": 564,      "max": [        48.868499755859375,        15.071640014648438,        22.513290405273438      ],      "min": [        17.58402442932129,        5.159233093261719,        1.0100284814834595      ],      "type": "VEC3"    },    {      "bufferView": 7,      "componentType": 5126,      "count": 564,      "max": [        0.9164097905158997,        0.9985961318016052,        0.9772331714630127      ],      "min": [        -0.9164097905158997,        -0.9985961318016052,        -0.9772331714630127      ],      "type": "VEC3"    },    {      "bufferView": 8,      "componentType": 5126,      "count": 564,      "max": [        -17.502544403076172,        15.071640014648438,        22.513290405273438      ],      "min": [        -48.78702163696289,        5.159233093261719,        1.0100284814834595      ],      "type": "VEC3"    },    {      "bufferView": 9,      "componentType": 5126,      "count": 564,      "max": [        0.9164097905158997,        0.9985961318016052,        0.9772331714630127      ],      "min": [        -0.9164097905158997,        -0.9985961318016052,        -0.9772331714630127      ],      "type": "VEC3"    },    {      "bufferView": 10,      "componentType": 5126,      "count": 324,      "max": [        16.557037353515625,        14.528976440429688,        2.1646461486816406      ],      "min": [        -16.60790252685547,        -25.4709415435791,        -2.854933500289917      ],      "type": "VEC3"    },    {      "bufferView": 11,      "componentType": 5126,      "count": 324,      "max": [        0.8297982811927795,        0.8105410933494568,        0.999267578125      ],      "min": [        -0.8297982811927795,        -0.8105410933494568,        -0.999267578125      ],      "type": "VEC3"    },    {      "bufferView": 12,      "componentType": 5126,      "count": 324,      "max": [        49.183494567871094,        14.49071216583252,        2.048152208328247      ],      "min": [        16.923492431640625,        -25.509204864501953,        -2.9714274406433105      ],      "type": "VEC3"    },    {      "bufferView": 13,      "componentType": 5126,      "count": 324,      "max": [        0.8321481943130493,        0.8101138472557068,        0.999237060546875      ],      "min": [        -0.8321481943130493,        -0.8101138472557068,        -0.999237060546875      ],      "type": "VEC3"    },    {      "bufferView": 14,      "componentType": 5126,      "count": 324,      "max": [        -17.086950302124023,        14.49071216583252,        2.048152208328247      ],      "min": [        -49.34695053100586,        -25.509204864501953,        -2.9714274406433105      ],      "type": "VEC3"    },    {      "bufferView": 15,      "componentType": 5126,      "count": 324,      "max": [        0.8321481943130493,        0.8101138472557068,        0.999237060546875      ],      "min": [        -0.8321481943130493,        -0.8101138472557068,        -0.999237060546875      ],      "type": "VEC3"    },    {      "bufferView": 16,      "componentType": 5126,      "count": 132,      "max": [        -49.08713912963867,        25.3939266204834,        12.011103630065918      ],      "min": [        -59.89936065673828,        -25.00957679748535,        -9.715938568115234      ],      "type": "VEC3"    },    {      "bufferView": 17,      "componentType": 5126,      "count": 132,      "max": [        0.9691762924194336,        0.7165135741233826,        0.8516190052032471      ],      "min": [        -0.9691762924194336,        -0.7165135741233826,        -0.8516190052032471      ],      "type": "VEC3"    },    {      "bufferView": 18,      "componentType": 5126,      "count": 612,      "max": [        49.437320709228516,        25.365882873535156,        16.124000549316406      ],      "min": [        -49.23270034790039,        14.553654670715332,        -9.002350807189941      ],      "type": "VEC3"    },    {      "bufferView": 19,      "componentType": 5126,      "count": 612,      "max": [        0.7220374345779419,        0.9794304966926575,        0.8417920470237732      ],      "min": [        -0.7220374345779419,        -0.9794304966926575,        -0.8417920470237732      ],      "type": "VEC3"    },    {      "bufferView": 20,      "componentType": 5126,      "count": 132,      "max": [        59.943756103515625,        25.3939266204834,        12.011103630065918      ],      "min": [        49.13153076171875,        -25.00957679748535,        -9.715938568115234      ],      "type": "VEC3"    },    {      "bufferView": 21,      "componentType": 5126,      "count": 132,      "max": [        0.9691762924194336,        0.7165135741233826,        0.8516190052032471      ],      "min": [        -0.9691762924194336,        -0.7165135741233826,        -0.8516190052032471      ],      "type": "VEC3"    },    {      "bufferView": 22,      "componentType": 5126,      "count": 168,      "max": [        59.83127212524414,        25.50920295715332,        -3.3587260246276855      ],      "min": [        -59.943756103515625,        -24.806659698486328,        -12.423727989196777      ],      "type": "VEC3"    },    {      "bufferView": 23,      "componentType": 5126,      "count": 168,      "max": [        0.8755760192871094,        0.8755760192871094,        0.8755760192871094      ],      "min": [        -0.8755760192871094,        -0.8755760192871094,        -0.8755760192871094      ],      "type": "VEC3"    }  ],  "materials": [    {      "pbrMetallicRoughness": {        "metallicFactor": 0.5,        "roughnessFactor": 0.5      },      "doubleSided": true,      "name": "mat1"    },    {      "pbrMetallicRoughness": {        "baseColorFactor": [          0.6038273388475408,          0.6038273388475408,          0.6038273388475408,          1        ],        "metallicFactor": 0.5,        "roughnessFactor": 0.5      },      "doubleSided": true,      "name": "mat0"    }  ],  "meshes": [    {      "primitives": [        {          "mode": 4,          "attributes": {            "POSITION": 0,            "NORMAL": 1          },          "material": 0        }      ]    },    {      "primitives": [        {          "mode": 4,          "attributes": {            "POSITION": 2,            "NORMAL": 3          },          "material": 0        }      ]    },    {      "primitives": [        {          "mode": 4,          "attributes": {            "POSITION": 4,            "NORMAL": 5          },          "material": 0        }      ]    },    {      "primitives": [        {          "mode": 4,          "attributes": {            "POSITION": 6,            "NORMAL": 7          },          "material": 0        }      ]    },    {      "primitives": [        {          "mode": 4,          "attributes": {            "POSITION": 8,            "NORMAL": 9          },          "material": 0        }      ]    },    {      "primitives": [        {          "mode": 4,          "attributes": {            "POSITION": 10,            "NORMAL": 11          },          "material": 0        }      ]    },    {      "primitives": [        {          "mode": 4,          "attributes": {            "POSITION": 12,            "NORMAL": 13          },          "material": 0        }      ]    },    {      "primitives": [        {          "mode": 4,          "attributes": {            "POSITION": 14,            "NORMAL": 15          },          "material": 0        }      ]    },    {      "primitives": [        {          "mode": 4,          "attributes": {            "POSITION": 16,            "NORMAL": 17          },          "material": 0        }      ]    },    {      "primitives": [        {          "mode": 4,          "attributes": {            "POSITION": 18,            "NORMAL": 19          },          "material": 0        }      ]    },    {      "primitives": [        {          "mode": 4,          "attributes": {            "POSITION": 20,            "NORMAL": 21          },          "material": 0        }      ]    },    {      "primitives": [        {          "mode": 4,          "attributes": {            "POSITION": 22,            "NORMAL": 23          },          "material": 1        }      ]    }  ]}